<svg xmlns="http://www.w3.org/2000/svg"  viewBox="0 0 64 64" width="256px" height="256px"><path fill="#ffeb9b" d="M40.089,5.194C25.285,0.726,9.662,9.106,5.194,23.911s3.912,30.428,18.717,34.895 s30.428-3.912,34.895-18.717S54.894,9.662,40.089,5.194z"/><path fill="#efc88e" d="M29.265,29.086l-16.696-5.039c0.121-0.298,0.252-0.592,0.392-0.884 c0.047-0.122,0.104-0.24,0.158-0.349c0.317-0.635,0.651-1.256,1.016-1.845c2.603-4.197,6.586-7.288,11.148-8.836L29.265,29.086z"/><path fill="#efc88e" d="M45.854,16.24l-12.698,11.93l-3.979-16.963c1.068-0.148,2.164-0.214,3.266-0.195 c0.383,0.011,0.766,0.022,1.153,0.056c0.736,0.055,1.491,0.147,2.232,0.287c0.229,0.038,0.445,0.082,0.668,0.139 c0.178,0.033,0.353,0.075,0.529,0.118c0.35,0.085,0.698,0.179,1.043,0.283s0.686,0.218,1.025,0.341 c0.169,0.062,0.339,0.123,0.505,0.194c0.217,0.076,0.422,0.159,0.634,0.254c0.695,0.293,1.375,0.634,2.018,0.996 c0.341,0.186,0.666,0.389,0.991,0.592C44.169,14.865,45.046,15.526,45.854,16.24z"/><path fill="#efc88e" d="M51.431,39.953c-0.121,0.298-0.252,0.592-0.392,0.884c-0.047,0.122-0.104,0.24-0.158,0.349 c-0.317,0.635-0.651,1.256-1.016,1.845c-2.603,4.197-6.586,7.288-11.148,8.836l-3.982-16.953L51.431,39.953z"/><path fill="#efc88e" d="M52.587,36.123L35.89,31.085l12.695-11.921c2.944,3.813,4.552,8.591,4.399,13.528 c-0.021,0.693-0.087,1.394-0.174,2.099c-0.016,0.121-0.034,0.251-0.062,0.378C52.704,35.49,52.65,35.808,52.587,36.123z"/><path fill="none" stroke="#8d6c9f" stroke-linejoin="round" stroke-miterlimit="10" stroke-width="2" d="M29.265,29.086 l-16.696-5.039c0.121-0.298,0.252-0.592,0.392-0.884c0.047-0.122,0.104-0.24,0.158-0.349c0.317-0.635,0.651-1.256,1.016-1.845 c2.603-4.197,6.586-7.288,11.148-8.836L29.265,29.086z"/><path fill="none" stroke="#8d6c9f" stroke-linecap="round" stroke-linejoin="round" stroke-miterlimit="10" stroke-width="2" d="M41,20.801l-7.844,7.37l-3.979-16.963c1.068-0.148,2.164-0.214,3.266-0.195c0.383,0.011,0.766,0.022,1.153,0.056 c0.736,0.055,1.491,0.147,2.232,0.287c0.229,0.038,0.445,0.082,0.668,0.139c0.178,0.033,0.353,0.075,0.529,0.118 c0.35,0.085,0.698,0.179,1.043,0.283s0.686,0.218,1.025,0.341c0.169,0.062,0.339,0.123,0.505,0.194 c0.217,0.076,0.422,0.159,0.634,0.254c0.695,0.293,1.375,0.634,2.018,0.996c0.341,0.186,0.666,0.389,0.991,0.592 c0.928,0.593,1.804,1.255,2.613,1.969L43.981,18"/><path fill="none" stroke="#8d6c9f" stroke-linecap="round" stroke-linejoin="round" stroke-miterlimit="10" stroke-width="2" d="M49,39.219l2.431,0.734c-0.121,0.298-0.252,0.592-0.392,0.884c-0.047,0.122-0.104,0.24-0.158,0.349 c-0.317,0.635-0.651,1.256-1.016,1.845c-2.603,4.197-6.586,7.288-11.148,8.836l-3.982-16.953L38,35.9"/><line x1="42" x2="44.96" y1="37.107" y2="38" fill="none" stroke="#8d6c9f" stroke-linecap="round" stroke-linejoin="round" stroke-miterlimit="10" stroke-width="2"/><path fill="none" stroke="#8d6c9f" stroke-linejoin="round" stroke-miterlimit="10" stroke-width="2" d="M52.587,36.123 L35.89,31.085l12.695-11.921c2.944,3.813,4.552,8.591,4.399,13.528c-0.021,0.693-0.087,1.394-0.174,2.099 c-0.016,0.121-0.034,0.251-0.062,0.378C52.704,35.49,52.65,35.808,52.587,36.123z"/><path fill="#8d6c9f" d="M23.622,59.763C8.313,55.143-0.383,38.931,4.237,23.622S25.069-0.383,40.378,4.237 s24.005,20.833,19.385,36.142S38.931,64.383,23.622,59.763z M39.8,6.151C25.547,1.85,10.453,9.946,6.151,24.2 S9.946,53.547,24.2,57.849S53.547,54.054,57.849,39.8S54.054,10.453,39.8,6.151z"/><g><path fill="#f9e3ae" d="M12.997,34.807c-2.467,0.589-5.064-0.135-6.869-1.916c-3.343-3.343-4.221-6.793-2.664-15.059 c5.236,5.236,8.854-0.427,13.502,4.221c1.785,1.804,2.512,4.401,1.923,6.869"/><path fill="#cda1a7" d="M40.161,59.651L20.027,42.455l-0.252-0.214l6.472-6.472L43.65,56.155 c0.873,1.056,0.724,2.62-0.333,3.492C42.401,60.404,41.079,60.405,40.161,59.651z"/><path fill="#faefde" d="M14.76,29.067c0,0-3.305-5.045-3.885-8.945c0,0,3.267-1.359,6.274,2.175s1.763,5.694,1.763,5.694 l-3.007,2.656L14.76,29.067z"/><path fill="#c4939c" d="M40.161,59.651L20.027,42.455l3.465-3.465l20.257,20.257c-0.81,1.095-2.354,1.325-3.448,0.515 C40.253,59.727,40.206,59.69,40.161,59.651z"/><path fill="#f6d397" d="M12.997,34.807l5.862-5.869c0.145-0.63,0.209-1.277,0.191-1.923l-3,4.534 c-2.427,0.565-3.992-0.557-6.106-2.053c-3.549-2.473-6.106-5.396-5.557-10.838c-0.321-0.257-0.627-0.532-0.916-0.824 c-1.527,8.266-0.679,11.724,2.664,15.059C7.939,34.67,10.532,35.394,12.997,34.807z"/><path fill="#acb7d0" d="M17.088,42.043l-1.527-1.229l-2.839-2.29l9.747-9.77l2.29,2.832l1.229,1.527 c0.735,0.908,0.67,2.223-0.153,3.053l-5.709,5.709C19.302,42.693,17.997,42.765,17.088,42.043z"/><path fill="none" stroke="#8d6c9f" stroke-linejoin="round" stroke-miterlimit="10" stroke-width="2" d="M12.997,34.807 c-2.467,0.589-5.064-0.135-6.869-1.916c-3.343-3.343-4.221-6.793-2.664-15.059c5.236,5.236,8.854-0.427,13.502,4.221 c1.785,1.804,2.512,4.401,1.923,6.869"/><path fill="#acb7d0" d="M21.929,27.139L21.929,27.139c0.596,0.596,0.596,1.563,0,2.159l-8.635,8.635 c-0.596,0.596-1.563,0.596-2.159,0l0,0c-0.596-0.596-0.596-1.563,0-2.159l8.635-8.635C20.367,26.542,21.333,26.542,21.929,27.139z"/><path fill="#c2cde7" d="M11.7,37.443L11.7,37.443c-0.817-0.671-0.936-1.878-0.264-2.696 c0.039-0.047,0.08-0.092,0.123-0.136l7.053-7.053c0.75-0.746,1.962-0.744,2.709,0.006c0.043,0.043,0.084,0.088,0.123,0.136l0,0 c0.802,0.99,0.73,2.426-0.167,3.331l-6.229,6.229C14.144,38.172,12.697,38.251,11.7,37.443z"/><path fill="none" stroke="#8d6c9f" stroke-linejoin="round" stroke-miterlimit="10" stroke-width="2" d="M25.988,33.113 l-1.229-1.527l-2.29-2.832l-0.535,0.537c0.59-0.597,0.59-1.558-0.004-2.152c-0.596-0.596-1.563-0.596-2.159,0l-8.635,8.635 c-0.596,0.596-0.596,1.563,0,2.159s1.563,0.596,2.159,0l-0.572,0.591l2.839,2.29l1.527,1.229c0.909,0.722,2.214,0.65,3.038-0.168 l5.709-5.709C26.657,35.336,26.723,34.02,25.988,33.113z"/><path fill="none" stroke="#8d6c9f" stroke-linejoin="round" stroke-miterlimit="10" stroke-width="2" d="M40.161,59.651 L20.027,42.455l-0.252-0.214l6.472-6.472L43.65,56.155c0.873,1.056,0.724,2.62-0.333,3.492 C42.401,60.404,41.079,60.405,40.161,59.651z"/></g><g><path fill="#8d6c9f" d="M14.944,26.598l-1.414-1.414c-0.39-0.39-1.024-0.39-1.414,0c-0.39,0.39-0.39,1.024,0,1.414 l1.414,1.414c0.39,0.39,1.024,0.39,1.414,0C15.334,27.622,15.334,26.989,14.944,26.598z"/><path fill="#8d6c9f" d="M11.408,30.134L9.994,28.72c-0.39-0.39-1.024-0.39-1.414,0c-0.39,0.39-0.39,1.024,0,1.414 l1.414,1.414c0.39,0.39,1.024,0.39,1.414,0C11.799,31.158,11.799,30.524,11.408,30.134z"/></g></svg>