<?xml version="1.0" standalone="yes"?>
<svg xmlns="http://www.w3.org/2000/svg" width="782" height="777">
<path style="fill:#fbfbed; stroke:none;" d="M0 0L0 777L782 777L782 0L0 0z"/>
<path style="fill:#7ea4f7; stroke:none;" d="M51 206L51 572L52 572L52 313L52 239L51 206z"/>
<path style="fill:#014dff; stroke:none;" d="M52 206L52 572L135 572L135 362L135 309C135 304.41 133.095 294.112 136.603 290.603C139.337 287.869 145.497 289 149 289L181 289L248 289C260.407 289 273.845 287.576 286 290.525C301.46 294.277 311.374 311.988 306.401 327C300.299 345.423 283.507 347.239 267 347.011C247.675 346.743 228.327 347 209 347C201.897 347 190.716 344.876 184.108 347.603C178.045 350.105 175.012 363.383 172.576 369C163.686 389.493 154.167 409.814 147 431L250 431C277.482 431 304.883 431.858 330 418.68C408.639 377.419 411.33 264.687 334 220.427C302.408 202.346 265.97 206 231 206L52 206z"/>
<path style="fill:#7ea4f7; stroke:none;" d="M288 206L288 207L292 207L288 206M325 206L326 207L325 206z"/>
<path style="fill:#014dff; stroke:none;" d="M326 206L326 207C390.969 234.049 419.489 314.454 385.688 376C371.833 401.228 349.587 418.876 324 431C328.313 449.116 325 471.387 325 490C325 515.32 329.86 546.385 324 571L352 572L408 572L408 408L409 408C426.395 449.56 451.552 488.702 471.753 529C476.954 539.376 482.362 549.73 487.781 560C489.535 563.324 491.808 569.712 495.39 571.397C500.626 573.858 510.277 572 516 572C524.145 572 538.211 574.732 545.671 571.397C550.293 569.33 552.639 561.229 554.753 557C561.109 544.288 567.547 531.502 574.309 519C587.18 495.201 598.746 470.659 611.861 447C619.249 433.673 631.386 416.912 634.61 402C636.49 393.301 635 382.885 635 374L635 317L666 317.001L677.61 316.527L684 305C631.464 305 605.94 237.468 652 207L652 206C646.944 206 637.774 204.231 633.39 207.028C629.169 209.721 626.917 217.672 624.753 222L606.753 258C578.315 314.876 545.434 371.313 521 430L492.753 375L439.247 268L417.247 224L407.61 207.028L385 206L326 206z"/>
<path style="fill:#7ea4f7; stroke:none;" d="M408 206L409 207L408 206M632 206L633 207L632 206z"/>
<path style="fill:#eca59d; stroke:none;" d="M671 206L671 207L674 207L671 206z"/>
<path style="fill:#cd0202; stroke:none;" d="M674 206.439C654.672 209.481 638.304 225.176 636.174 245C633.324 271.52 655.307 300.388 684 296.156C696.245 294.35 708.521 289.664 716.674 279.996C743.73 247.916 714.465 200.07 674 206.439z"/>
<path style="fill:#eca59d; stroke:none;" d="M690.667 206.333L691.333 206.667L690.667 206.333z"/>
<path style="fill:#7ea4f7; stroke:none;" d="M296 207L296 208L299 208L296 207M327 207L328 208L327 207M650 207L651 208L650 207z"/>
<path style="fill:#eca59d; stroke:none;" d="M668 207L669 208L668 207M694.667 207.333L695.333 207.667L694.667 207.333z"/>
<path style="fill:#7ea4f7; stroke:none;" d="M302.667 208.333L303.333 208.667L302.667 208.333M329 208L330 209L329 208M409 208L410 209L409 208M631 208L632 209L631 208M649 208L650 209L649 208z"/>
<path style="fill:#eca59d; stroke:none;" d="M665 208L666 209L665 208M697.667 208.333L698.333 208.667L697.667 208.333z"/>
<path style="fill:#7ea4f7; stroke:none;" d="M306.667 209.333L307.333 209.667L306.667 209.333M331 209L332 210L331 209z"/>
<path style="fill:#eca59d; stroke:none;" d="M662 209L663 210L662 209M700 209L701 210L700 209z"/>
<path style="fill:#7ea4f7; stroke:none;" d="M310 210L311 211L310 210z"/>
<path style="fill:#eca59d; stroke:none;" d="M311 210L312 211L311 210z"/>
<path style="fill:#7ea4f7; stroke:none;" d="M333 210L334 211L333 210M410 210L411 211L410 210M630 210L631 211L630 210z"/>
<path style="fill:#eca59d; stroke:none;" d="M660 210L661 211L660 210M702 210L703 211L702 210z"/>
<path style="fill:#7ea4f7; stroke:none;" d="M313.667 211.333L314.333 211.667L313.667 211.333M335 211L336 212L335 211M645 211L646 212L645 211z"/>
<path style="fill:#eca59d; stroke:none;" d="M658 211L659 212L658 211M704 211L705 212L704 211z"/>
<path style="fill:#7ea4f7; stroke:none;" d="M316 212L317 213L316 212M337 212L338 213L337 212M411 212L412 213L411 212M629 212L630 213L629 212M644 212L645 213L644 212z"/>
<path style="fill:#eca59d; stroke:none;" d="M706 212L707 213L706 212z"/>
<path style="fill:#7ea4f7; stroke:none;" d="M319 213L320 214L319 213M339 213L340 214L339 213M643 213L644 214L643 213z"/>
<path style="fill:#eca59d; stroke:none;" d="M655 213L656 214L655 213M707 213L708 214L707 213z"/>
<path style="fill:#7ea4f7; stroke:none;" d="M321 214L322 215L321 214z"/>
<path style="fill:#eca59d; stroke:none;" d="M340 214L341 215L340 214z"/>
<path style="fill:#7ea4f7; stroke:none;" d="M412 214L413 215L412 214M628 214L629 215L628 214M642 214L643 215L642 214z"/>
<path style="fill:#eca59d; stroke:none;" d="M654 214L655 215L654 214z"/>
<path style="fill:#7ea4f7; stroke:none;" d="M324 215L325 216L324 215M342 215L343 216L342 215M641 215L642 216L641 215z"/>
<path style="fill:#eca59d; stroke:none;" d="M652 215L653 216L652 215M710 215L711 216L710 215z"/>
<path style="fill:#7ea4f7; stroke:none;" d="M326 216L327 217L326 216M344 216L345 217L344 216M413 216L414 217L413 216M627 216L628 217L627 216M640 216L641 217L640 216z"/>
<path style="fill:#eca59d; stroke:none;" d="M651 216L652 217L651 216M711 216L712 217L711 216z"/>
<path style="fill:#7ea4f7; stroke:none;" d="M328 217L329 218L328 217M345 217L346 218L345 217z"/>
<path style="fill:#eca59d; stroke:none;" d="M650 217L651 218L650 217M712 217L713 218L712 217z"/>
<path style="fill:#7ea4f7; stroke:none;" d="M330 218L331 219L330 218M347 218L348 219L347 218M414 218L415 219L414 218M626 218L627 219L626 218z"/>
<path style="fill:#eca59d; stroke:none;" d="M649 218L650 219L649 218M713 218L714 219L713 218z"/>
<path style="fill:#7ea4f7; stroke:none;" d="M332 219L333 220L332 219M348 219L349 220L348 219z"/>
<path style="fill:#eca59d; stroke:none;" d="M648 219L649 220L648 219z"/>
<path style="fill:#7ea4f7; stroke:none;" d="M334 220L335 221L334 220M415 220L416 221L415 220M625 220L626 221L625 220M637 220L638 221L637 220z"/>
<path style="fill:#eca59d; stroke:none;" d="M647 220L648 221L647 220M715 220L716 221L715 220z"/>
<path style="fill:#7ea4f7; stroke:none;" d="M335 221L336 222L335 221M351 221L352 222L351 221z"/>
<path style="fill:#eca59d; stroke:none;" d="M646 221L647 222L646 221M716 221L717 222L716 221z"/>
<path style="fill:#7ea4f7; stroke:none;" d="M337 222L338 223L337 222M352 222L353 223L352 222M416 222L417 223L416 222M624 222L625 223L624 222z"/>
<path style="fill:#eca59d; stroke:none;" d="M645 222L646 223L645 222M717 222L718 223L717 222z"/>
<path style="fill:#7ea4f7; stroke:none;" d="M339 223L340 224L339 223M635 223L636 224L635 223M340 224L341 225L340 224M417 224L418 225L417 224M623 224L624 225L623 224M634 224L635 225L634 224M342 225L343 226L342 225M356 225L357 226L356 225z"/>
<path style="fill:#eca59d; stroke:none;" d="M643 225L644 226L643 225M719 225L720 226L719 225z"/>
<path style="fill:#7ea4f7; stroke:none;" d="M343 226L344 227L343 226M357 226L358 227L357 226M418 226L419 227L418 226M622 226L623 227L622 226M633 226L634 227L633 226z"/>
<path style="fill:#eca59d; stroke:none;" d="M642 226L643 227L642 226z"/>
<path style="fill:#7ea4f7; stroke:none;" d="M345 227L346 228L345 227M358 227L359 228L358 227M346 228L347 229L346 228M419 228L420 229L419 228M621 228L622 229L621 228M632 228L633 229L632 228z"/>
<path style="fill:#eca59d; stroke:none;" d="M641 228L642 229L641 228M721 228L722 229L721 228z"/>
<path style="fill:#7ea4f7; stroke:none;" d="M420 230L421 231L420 230M620 230L621 231L620 230M631 230L632 231L631 230z"/>
<path style="fill:#eca59d; stroke:none;" d="M640 230L641 231L640 230M722 230L723 231L722 230z"/>
<path style="fill:#7ea4f7; stroke:none;" d="M350 231L351 232L350 231M351 232L352 233L351 232M421 232L422 233L421 232M619 232L620 233L619 232z"/>
<path style="fill:#eca59d; stroke:none;" d="M639 232L640 233L639 232M723 232L724 233L723 232z"/>
<path style="fill:#7ea4f7; stroke:none;" d="M630 233L631 234L630 233M422 234L423 235L422 234M618 234L619 235L618 234z"/>
<path style="fill:#eca59d; stroke:none;" d="M638.333 234.667L638.667 235.333L638.333 234.667M724 235L725 236L724 235z"/>
<path style="fill:#7ea4f7; stroke:none;" d="M423 236L424 237L423 236M617 236L618 237L617 236M629 236L630 237L629 236z"/>
<path style="fill:#eca59d; stroke:none;" d="M637.333 237.667L637.667 238.333L637.333 237.667M725.333 237.667L725.667 238.333L725.333 237.667M369 238L370 239L369 238z"/>
<path style="fill:#7ea4f7; stroke:none;" d="M424 238L425 239L424 238M616 238L617 239L616 238M370 239L371 240L370 239M628 239L628 242L629 242L628 239M371 240L372 241L371 240M425 240L426 241L425 240M615 240L616 241L615 240M372 241L373 242L372 241z"/>
<path style="fill:#eca59d; stroke:none;" d="M636.333 241.667L636.667 242.333L636.333 241.667M726.333 241.667L726.667 242.333L726.333 241.667z"/>
<path style="fill:#7ea4f7; stroke:none;" d="M426 242L427 243L426 242M614 242L615 243L614 242M427 244L428 245L427 244M613 244L614 245L613 244M375 245L376 246L375 245M627 245L627 257L628 257L627 245M365 246L366 247L365 246M376 246L377 247L376 246M428 246L429 247L428 246M612 246L613 247L612 246z"/>
<path style="fill:#eca59d; stroke:none;" d="M727 246L727 256L728 256L727 246z"/>
<path style="fill:#7ea4f7; stroke:none;" d="M366 247L367 248L366 247M367 248L368 249L367 248M429 248L430 249L429 248M611 248L612 249L611 248z"/>
<path style="fill:#eca59d; stroke:none;" d="M635 248L635 254L636 254L635 248z"/>
<path style="fill:#7ea4f7; stroke:none;" d="M378 249L379 250L378 249M430 250L431 251L430 250M610 250L611 251L610 250M369 251L370 252L369 251M370 252L371 253L370 252M380 252L381 253L380 252M431 252L432 253L431 252M609 252L610 253L609 252M381 253L382 254L381 253M432 254L433 255L432 254M608 254L609 255L608 254M372 255L373 256L372 255M382 255L383 256L382 255M373 256L374 257L373 256M433 256L434 257L433 256M607 256L608 257L607 256M383 257L384 258L383 257M374 258L375 259L374 258M384 258L385 259L384 258M434 258L435 259L434 258M606 258L607 259L606 258z"/>
<path style="fill:#eca59d; stroke:none;" d="M636 258L636 261L637 261L636 258M375 259L376 260L375 259M726.333 259.667L726.667 260.333L726.333 259.667z"/>
<path style="fill:#7ea4f7; stroke:none;" d="M385 260L386 261L385 260M435 260L436 261L435 260M605 260L606 261L605 260M376 261L377 262L376 261M628.333 261.667L628.667 262.333L628.333 261.667M386 262L387 263L386 262M436 262L437 263L436 262M604 262L605 263L604 262M377 263L378 264L377 263z"/>
<path style="fill:#eca59d; stroke:none;" d="M637.333 263.667L637.667 264.333L637.333 263.667M725.333 263.667L725.667 264.333L725.333 263.667z"/>
<path style="fill:#7ea4f7; stroke:none;" d="M387 264L388 265L387 264M437 264L438 265L437 264M603 264L604 265L603 264M378 265L379 266L378 265M629.333 265.667L629.667 266.333L629.333 265.667z"/>
<path style="fill:#eca59d; stroke:none;" d="M379 266L380 267L379 266z"/>
<path style="fill:#7ea4f7; stroke:none;" d="M388 266L389 267L388 266M438 266L439 267L438 266M602 266L603 267L602 266z"/>
<path style="fill:#eca59d; stroke:none;" d="M638 266L639 267L638 266M724.333 266.667L724.667 267.333L724.333 266.667z"/>
<path style="fill:#7ea4f7; stroke:none;" d="M379 267L380 268L379 267M380.333 268.667L380.667 269.333L380.333 268.667M389 268L390 269L389 268M439 268L440 269L439 268M601 268L602 269L601 268M630.333 268.667L630.667 269.333L630.333 268.667z"/>
<path style="fill:#eca59d; stroke:none;" d="M639 269L640 270L639 269M723 269L724 270L723 269z"/>
<path style="fill:#7ea4f7; stroke:none;" d="M390 270L391 271L390 270M440 270L441 271L440 270M600 270L601 271L600 270M631 271L632 272L631 271z"/>
<path style="fill:#eca59d; stroke:none;" d="M640 271L641 272L640 271M722 271L723 272L722 271z"/>
<path style="fill:#7ea4f7; stroke:none;" d="M391.333 272.667L391.667 273.333L391.333 272.667M441 272L442 273L441 272M599 272L600 273L599 272M382 273L383 274L382 273M632 273L633 274L632 273z"/>
<path style="fill:#eca59d; stroke:none;" d="M641 273L642 274L641 273M721 273L722 274L721 273z"/>
<path style="fill:#7ea4f7; stroke:none;" d="M442 274L443 275L442 274M598 274L599 275L598 274z"/>
<path style="fill:#eca59d; stroke:none;" d="M720 274L721 275L720 274z"/>
<path style="fill:#7ea4f7; stroke:none;" d="M383 275L384 276L383 275M392 275L393 276L392 275M633 275L634 276L633 275M443 276L444 277L443 276M597 276L598 277L597 276z"/>
<path style="fill:#eca59d; stroke:none;" d="M643 276L644 277L643 276M719 276L720 277L719 276M384 277L385 278L384 277z"/>
<path style="fill:#7ea4f7; stroke:none;" d="M634 277L635 278L634 277z"/>
<path style="fill:#eca59d; stroke:none;" d="M718 277L719 278L718 277z"/>
<path style="fill:#7ea4f7; stroke:none;" d="M384 278L385 279L384 278M393 278L394 279L393 278M444 278L445 279L444 278M596 278L597 279L596 278M635 279L636 280L635 279z"/>
<path style="fill:#eca59d; stroke:none;" d="M645 279L646 280L645 279z"/>
<path style="fill:#7ea4f7; stroke:none;" d="M385.333 280.667L385.667 281.333L385.333 280.667M445 280L446 281L445 280M595 280L596 281L595 280z"/>
<path style="fill:#eca59d; stroke:none;" d="M646 280L647 281L646 280z"/>
<path style="fill:#7ea4f7; stroke:none;" d="M394 281L395 282L394 281z"/>
<path style="fill:#eca59d; stroke:none;" d="M647 281L648 282L647 281M715 281L716 282L715 281z"/>
<path style="fill:#7ea4f7; stroke:none;" d="M446 282L447 283L446 282M594 282L595 283L594 282M637 282L638 283L637 282z"/>
<path style="fill:#eca59d; stroke:none;" d="M714 282L715 283L714 282z"/>
<path style="fill:#7ea4f7; stroke:none;" d="M386.333 283.667L386.667 284.333L386.333 283.667M638 283L639 284L638 283z"/>
<path style="fill:#eca59d; stroke:none;" d="M649 283L650 284L649 283M713 283L714 284L713 283z"/>
<path style="fill:#7ea4f7; stroke:none;" d="M395.333 284.667L395.667 285.333L395.333 284.667M447 284L448 285L447 284M593 284L594 285L593 284z"/>
<path style="fill:#eca59d; stroke:none;" d="M650 284L651 285L650 284M651 285L652 286L651 285z"/>
<path style="fill:#7ea4f7; stroke:none;" d="M387.333 286.667L387.667 287.333L387.333 286.667M448 286L449 287L448 286M592 286L593 287L592 286z"/>
<path style="fill:#eca59d; stroke:none;" d="M652 286L653 287L652 286M709 286L710 287L709 286z"/>
<path style="fill:#7ea4f7; stroke:none;" d="M396.333 287.667L396.667 288.333L396.333 287.667M641 287L642 288L641 287z"/>
<path style="fill:#eca59d; stroke:none;" d="M653 287L654 288L653 287M708 287L709 288L708 287z"/>
<path style="fill:#7ea4f7; stroke:none;" d="M449 288L450 289L449 288M591 288L592 289L591 288M642 288L643 289L642 288z"/>
<path style="fill:#eca59d; stroke:none;" d="M655 288L656 289L655 288M706 288L707 289L706 288z"/>
<path style="fill:#7ea4f7; stroke:none;" d="M136 289L136 290L280 290C268.782 285.293 249.206 289 237 289L136 289M643 289L644 290L643 289z"/>
<path style="fill:#eca59d; stroke:none;" d="M656 289L657 290L656 289M135 290L136 291L135 290M284 290L285 291L284 290z"/>
<path style="fill:#7ea4f7; stroke:none;" d="M285.667 290.333L286.333 290.667L285.667 290.333M388.333 290.667L388.667 291.333L388.333 290.667M450 290L451 291L450 290M590 290L591 291L590 290M644 290L645 291L644 290z"/>
<path style="fill:#eca59d; stroke:none;" d="M658 290L659 291L658 290M703 290L704 291L703 290z"/>
<path style="fill:#7ea4f7; stroke:none;" d="M288.667 291.333L289.333 291.667L288.667 291.333z"/>
<path style="fill:#eca59d; stroke:none;" d="M701 291L702 292L701 291z"/>
<path style="fill:#7ea4f7; stroke:none;" d="M135.333 292.667L135.667 293.333L135.333 292.667M291 292L292 293L291 292M397.333 292.667L397.667 293.333L397.333 292.667M451 292L452 293L451 292M589 292L590 293L589 292z"/>
<path style="fill:#eca59d; stroke:none;" d="M662 292L663 293L662 292M698 292L699 293L698 292z"/>
<path style="fill:#7ea4f7; stroke:none;" d="M293 293L294 294L293 293M648 293L649 294L648 293z"/>
<path style="fill:#eca59d; stroke:none;" d="M664 293L665 294L664 293M695.667 293.333L696.333 293.667L695.667 293.333M135 294L136 295L135 294z"/>
<path style="fill:#7ea4f7; stroke:none;" d="M294 294L295 295L294 294M452 294L453 295L452 294M588 294L589 295L588 294M649 294L650 295L649 294z"/>
<path style="fill:#eca59d; stroke:none;" d="M667 294L668 295L667 294M691.667 294.333L692.333 294.667L691.667 294.333z"/>
<path style="fill:#7ea4f7; stroke:none;" d="M296 295L297 296L296 295M389.333 295.667L389.667 296.333L389.333 295.667z"/>
<path style="fill:#eca59d; stroke:none;" d="M670.667 295.333L671.333 295.667L670.667 295.333M687.667 295.333L688.333 295.667L687.667 295.333M135 296L135 568L136 568L136 376L136 321L135 296z"/>
<path style="fill:#7ea4f7; stroke:none;" d="M297 296L298 297L297 296M398 296L398 300L399 300L398 296M453 296L454 297L453 296M587 296L588 297L587 296M652 296L653 297L652 296z"/>
<path style="fill:#eca59d; stroke:none;" d="M675 296L675 297L680 297L675 296M682 296L682 297L685 297L682 296z"/>
<path style="fill:#7ea4f7; stroke:none;" d="M298 297L299 298L298 297M654 297L655 298L654 297M299 298L300 299L299 298M454 298L455 299L454 298M586 298L587 299L586 298M300 299L301 300L300 299M657 299L658 300L657 299M301 300L302 301L301 300z"/>
<path style="fill:#eca59d; stroke:none;" d="M390 300L391 301L390 300z"/>
<path style="fill:#7ea4f7; stroke:none;" d="M455 300L456 301L455 300M585 300L586 301L585 300M659 300L660 301L659 300M390 301L390 305L391 305L390 301M662 301L663 302L662 301M456 302L457 303L456 302M584 302L585 303L584 302M664.667 302.333L665.333 302.667L664.667 302.333M303 303L304 304L303 303M399 303L399 308L400 308L399 303M668.667 303.333L669.333 303.667L668.667 303.333M457 304L458 305L457 304M583 304L584 305L583 304M672 304L672 305L676 305L672 304M683 304L685 306L685 304L683 304M304 305L305 306L304 305M458 306L459 307L458 306M582 306L583 307L582 306M305 307L306 308L305 307M683 307L684 308L683 307M459 308L460 309L459 308M581 308L582 309L581 308M306.333 309.667L306.667 310.333L306.333 309.667M391 309L392 310L391 309M682 309L683 310L682 309M399 310L400 311L399 310M460 310L461 311L460 310M580 310L581 311L580 310M391 311L391 327L392 327L391 311M681 311L682 312L681 311M461 312L462 313L461 312M579 312L580 313L579 312M680 313L681 314L680 313M307 314L307 318L308 318L307 314M462 314L463 315L462 314M578 314L579 315L578 314M679 315L680 316L679 315M463 316L464 317L463 316M577 316L578 317L577 316M635 317L636 318L635 317M638 317L638 318L674 318C664.44 313.989 648.387 317 638 317M675 317L675 318L679 318L675 317z"/>
<path style="fill:#eca59d; stroke:none;" d="M307 318L308 319L307 318z"/>
<path style="fill:#7ea4f7; stroke:none;" d="M464 318L465 319L464 318M576 318L577 319L576 318M307 319L307 323L308 323L307 319M465 320L466 321L465 320M575 320L576 321L575 320M466 322L467 323L466 322M574 322L575 323L574 322M467 324L468 325L467 324M573 324L574 325L573 324M306.333 326.667L306.667 327.333L306.333 326.667M468 326L469 327L468 326M572 326L573 327L572 326M643 326L643 572L644 572L644 399L644 349L643 326z"/>
<path style="fill:#014dff; stroke:none;" d="M644 326L644 572L727 572L727 326L644 326z"/>
<path style="fill:#7ea4f7; stroke:none;" d="M727 326L727 572L728 572L728 399L728 349L727 326M399 327L399 333L400 333L399 327M469 328L470 329L469 328M571 328L572 329L571 328M305 329L306 330L305 329M470 330L471 331L470 330M570 330L571 331L570 330M304 331L305 332L304 331M471 332L472 333L471 332M569 332L570 333L569 332M303 333L304 334L303 333M390 333L390 336L391 336L390 333M472 334L473 335L472 334M568 334L569 335L568 334M301 336L302 337L301 336z"/>
<path style="fill:#eca59d; stroke:none;" d="M390 336L391 337L390 336M398 336L399 337L398 336z"/>
<path style="fill:#7ea4f7; stroke:none;" d="M473 336L474 337L473 336M567 336L568 337L567 336M300 337L301 338L300 337M398 337L398 340L399 340L398 337M299 338L300 339L299 338M474 338L475 339L474 338M566 338L567 339L566 338M298 339L299 340L298 339M297 340L298 341L297 340M389.333 340.667L389.667 341.333L389.333 340.667M475 340L476 341L475 340M565 340L566 341L565 340M294 342L295 343L294 342z"/>
<path style="fill:#eca59d; stroke:none;" d="M389 342L390 343L389 342z"/>
<path style="fill:#7ea4f7; stroke:none;" d="M476 342L477 343L476 342M564 342L565 343L564 342M293 343L294 344L293 343M397.333 343.667L397.667 344.333L397.333 343.667M291 344L292 345L291 344M388 344L388 347L389 347L388 344M477 344L478 345L477 344M563 344L564 345L563 344M288 345L289 346L288 345M284.667 346.333L285.333 346.667L284.667 346.333M478 346L479 347L478 346M562 346L563 347L562 346M182 347L183 348L182 347M272.667 347.333L273.333 347.667L272.667 347.333M275 347L276 348L275 347z"/>
<path style="fill:#eca59d; stroke:none;" d="M396 347L397 348L396 347z"/>
<path style="fill:#7ea4f7; stroke:none;" d="M181 348L182 349L181 348M396.333 348.667L396.667 349.333L396.333 348.667M479 348L480 349L479 348M561 348L562 349L561 348M387 349L388 350L387 349M180 350L181 351L180 350M480 350L481 351L480 350M560 350L561 351L560 350M395.333 351.667L395.667 352.333L395.333 351.667M386.333 352.667L386.667 353.333L386.333 352.667M481 352L482 353L481 352M559 352L560 353L559 352M179 353L180 354L179 353M482 354L483 355L482 354M558 354L559 355L558 354M178 355L179 356L178 355M385.333 355.667L385.667 356.333L385.333 355.667M394 355L395 356L394 355M483 356L484 357L483 356M557 356L558 357L557 356M177 357L178 358L177 357M384 358L385 359L384 358M393 358L394 359L393 358M484 358L485 359L484 358M556 358L557 359L556 358M176 359L177 360L176 359z"/>
<path style="fill:#eca59d; stroke:none;" d="M384 359L385 360L384 359z"/>
<path style="fill:#7ea4f7; stroke:none;" d="M485 360L486 361L485 360M555 360L556 361L555 360M383 361L384 362L383 361M392 361L393 362L392 361M175 362L176 363L175 362M486 362L487 363L486 362M554 362L555 363L554 362M382 363L383 364L382 363M391 363L392 364L391 363M174 364L175 365L174 364M487 364L488 365L487 364M553 364L554 365L553 364M381 365L382 366L381 365M173 366L174 367L173 366z"/>
<path style="fill:#eca59d; stroke:none;" d="M381 366L382 367L381 366z"/>
<path style="fill:#7ea4f7; stroke:none;" d="M390 366L391 367L390 366M488 366L489 367L488 366M552 366L553 367L552 366M172.333 368.667L172.667 369.333L172.333 368.667M380 368L381 369L380 368M389 368L390 369L389 368M489 368L490 369L489 368M551 368L552 369L551 368M379 369L380 370L379 369z"/>
<path style="fill:#eca59d; stroke:none;" d="M379 370L380 371L379 370z"/>
<path style="fill:#7ea4f7; stroke:none;" d="M388 370L389 371L388 370M490 370L491 371L490 370M550 370L551 371L550 370M171 371L172 372L171 371M378 371L379 372L378 371M387 372L388 373L387 372M491 372L492 373L491 372M549 372L550 373L549 372M170 373L171 374L170 373M377 373L378 374L377 373M386 374L387 375L386 374M492 374L493 375L492 374M548 374L549 375L548 374M169 375L170 376L169 375M376 375L377 376L376 375M385 376L386 377L385 376M493 376L494 377L493 376M547 376L548 377L547 376M168 378L169 379L168 378M374 378L375 379L374 378M384 378L385 379L384 378M494 378L495 379L494 378M546 378L547 379L546 378z"/>
<path style="fill:#eca59d; stroke:none;" d="M383 379L384 380L383 379z"/>
<path style="fill:#7ea4f7; stroke:none;" d="M167 380L168 381L167 380z"/>
<path style="fill:#eca59d; stroke:none;" d="M373 380L374 381L373 380z"/>
<path style="fill:#7ea4f7; stroke:none;" d="M495 380L496 381L495 380M545 380L546 381L545 380M372 381L373 382L372 381M382 381L383 382L382 381M166.333 382.667L166.667 383.333L166.333 382.667M496 382L497 383L496 382M544 382L545 383L544 382M370 384L371 385L370 384M380 384L381 385L380 384M497 384L498 385L497 384M543 384L544 385L543 384M165 385L166 386L165 385M369 385L370 386L369 385M379 386L380 387L379 386M498 386L499 387L498 386M542 386L543 387L542 386M164 387L165 388L164 387M378 387L379 388L378 387M367 388L368 389L367 388M499 388L500 389L499 388M541 388L542 389L541 388M163 389L164 390L163 389M366 389L367 390L366 389M365 390L366 391L365 390M376 390L377 391L376 390M500 390L501 391L500 390M540 390L541 391L540 390M162.333 391.667L162.667 392.333L162.333 391.667M375 391L376 392L375 391M501 392L502 393L501 392M539 392L540 393L539 392M161 394L162 395L161 394M502 394L503 395L502 394M538 394L539 395L538 394M372 395L373 396L372 395M160 396L161 397L160 396M371 396L372 397L371 396M503 396L504 397L503 396M537 396L538 397L537 396M370 397L371 398L370 397M159.333 398.667L159.667 399.333L159.333 398.667M504 398L505 399L504 398M536 398L537 399L536 398M505 400L506 401L505 400M535 400L536 401L535 400M158 401L159 402L158 401M506 402L507 403L506 402M534 402L535 403L534 402M157 403L158 404L157 403M352 403L353 404L352 403M634 403L635 404L634 403M351 404L352 405L351 404M507 404L508 405L507 404M533 404L534 405L533 404M156 405L157 406L156 405M350 405L351 406L350 405M633 405L634 406L633 405M508 406L509 407L508 406M532 406L533 407L532 406M632 407L633 408L632 407M155 408L156 409L155 408M346 408L347 409L346 408M408 408L408 410L410 410L408 408M509 408L510 409L509 408M531 408L532 409L531 408M358 409L359 410L358 409M631 409L632 410L631 409M154 410L155 411L154 410M343 410L344 411L343 410M357 410L358 411L357 410M510 410L511 411L510 410M530 410L531 411L530 410M342 411L343 412L342 411M356 411L357 412L356 411M408 411L409 412L408 411M410 411L411 412L410 411M630 411L631 412L630 411M340 412L341 413L340 412M511 412L512 413L511 412M529 412L530 413L529 412M153 413L154 414L153 413M339 413L340 414L339 413M408 413L409 414L408 413M411 413L412 414L411 413M629 413L630 414L629 413M337 414L338 415L337 414M352 414L353 415L352 414M512 414L513 415L512 414M528 414L529 415L528 414M152.333 415.667L152.667 416.333L152.333 415.667M335 415L336 416L335 415M351 415L352 416L351 415M408 415L409 416L408 415M412 415L413 416L412 415M628 415L629 416L628 415M333 416L334 417L333 416M413 416L414 417L413 416M513 416L514 417L513 416M527 416L528 417L527 416M332 417L333 418L332 417M348 417L349 418L348 417z"/>
<path style="fill:#eca59d; stroke:none;" d="M413 417L414 418L413 417z"/>
<path style="fill:#7ea4f7; stroke:none;" d="M627 417L628 418L627 417M151 418L152 419L151 418M330 418L331 419L330 418M408 418L409 419L408 418M414.333 418.667L414.667 419.333L414.333 418.667M514 418L515 419L514 418M526 418L527 419L526 418M626 418L627 419L626 418M328 419L329 420L328 419M345 419L346 420L345 419M326 420L327 421L326 420M344 420L345 421L344 420z"/>
<path style="fill:#eca59d; stroke:none;" d="M408 420L409 421L408 420z"/>
<path style="fill:#7ea4f7; stroke:none;" d="M415 420L416 421L415 420M515 420L516 421L515 420M525 420L526 421L525 420M625 420L626 421L625 420M150 421L151 422L150 421M323 421L324 422L323 421z"/>
<path style="fill:#eca59d; stroke:none;" d="M324 421L325 422L324 421z"/>
<path style="fill:#7ea4f7; stroke:none;" d="M342 421L343 422L342 421M408 421L409 422L408 421M321 422L322 423L321 422M416 422L417 423L416 422M516 422L517 423L516 422M524 422L525 423L524 422M149.333 423.667L149.667 424.333L149.333 423.667M318.667 423.333L319.333 423.667L318.667 423.333M339 423L340 424L339 423M408 423L409 424L408 423M316 424L317 425L316 424M337 424L338 425L337 424z"/>
<path style="fill:#eca59d; stroke:none;" d="M408 424L408 569L409 569L409 468C409 455.532 412.807 435.456 408 424z"/>
<path style="fill:#7ea4f7; stroke:none;" d="M417 424L418 425L417 424M517 424L518 425L517 424M523 424L524 425L523 424M623 424L624 425L623 424M313 425L314 426L313 425M335 425L336 426L335 425M148 426L149 427L148 426M309.667 426.333L310.333 426.667L309.667 426.333M333 426L334 427L333 426M418 426L419 427L418 426M518 426L519 427L518 426M522 426L523 427L522 426M622 426L623 427L622 426M306 427L307 428L306 427M331 427L332 428L331 427M301 428L301 429L304 429L301 428M329 428L330 429L329 428M419 428L420 429L419 428M519 428L520 429L519 428M521 428L522 429L521 428M621 428L622 429L621 428M147 429L148 430L147 429M296.667 429.333L297.333 429.667L296.667 429.333M327 429L328 430L327 429M284 430L285 431L284 430M287 430L287 431L292 431L287 430M324 430L325 431L324 430M420 430L421 431L420 430M620 430L621 431L620 430M324 432L324 570L325 570L325 474C325 462.056 328.607 442.98 324 432M421 432L422 433L421 432M619 432L620 433L619 432M422 434L423 435L422 434M618 434L619 435L618 434M423 436L424 437L423 436M617 436L618 437L617 436M424 438L425 439L424 438M616 438L617 439L616 438M615 440L616 441L615 440M426.333 441.667L426.667 442.333L426.333 441.667z"/>
<path style="fill:#eca59d; stroke:none;" d="M614 442L615 443L614 442M613 444L614 445L613 444z"/>
<path style="fill:#7ea4f7; stroke:none;" d="M428 445L429 446L428 445M612 445L613 446L612 445M429 447L430 448L429 447M611 447L612 448L611 447M430 449L431 450L430 449M610 449L611 450L610 449M431 451L432 452L431 451M609 451L610 452L609 451M432 453L433 454L432 453M608 453L609 454L608 453M433 455L434 456L433 455M607 455L608 456L607 455M434 457L435 458L434 457M606 457L607 458L606 457M435 459L436 460L435 459M605 459L606 460L605 459M436 461L437 462L436 461M604 461L605 462L604 461M437 463L438 464L437 463M603 463L604 464L603 463M438.333 464.667L438.667 465.333L438.333 464.667M602 465L603 466L602 465M439 466L440 467L439 466M601 466L602 467L601 466z"/>
<path style="fill:#eca59d; stroke:none;" d="M601 467L602 468L601 467z"/>
<path style="fill:#7ea4f7; stroke:none;" d="M440.333 468.667L440.667 469.333L440.333 468.667M600.333 468.667L600.667 469.333L600.333 468.667M441 470L442 471L441 470M599 470L600 471L599 470M442 472L443 473L442 472M598 472L599 473L598 472M443 474L444 475L443 474M597 474L598 475L597 474M444 476L445 477L444 476M596 476L597 477L596 476M445 478L446 479L445 478M595 478L596 479L595 478M446 480L447 481L446 480M594 480L595 481L594 480M447 482L448 483L447 482M593 482L594 483L593 482M448 484L449 485L448 484M592 484L593 485L592 484M449 486L450 487L449 486M591 486L592 487L591 486M450 488L451 489L450 488M590 488L591 489L590 488M589 490L590 491L589 490M588 491L589 492L588 491z"/>
<path style="fill:#eca59d; stroke:none;" d="M452 492L453 493L452 492M588 492L589 493L588 492z"/>
<path style="fill:#7ea4f7; stroke:none;" d="M453 493L454 494L453 493M587 493L588 494L587 493M454 495L455 496L454 495M586 496L587 497L586 496M455 497L456 498L455 497M585 497L586 498L585 497M456 499L457 500L456 499M584 499L585 500L584 499M457 501L458 502L457 501M583 501L584 502L583 501M458 503L459 504L458 503M582 503L583 504L582 503M459 505L460 506L459 505M581 505L582 506L581 505M460 507L461 508L460 507M580 507L581 508L580 507M461 509L462 510L461 509M579 509L580 510L579 509M462 511L463 512L462 511M578 511L579 512L578 511M463.333 512.667L463.667 513.333L463.333 512.667M577 513L578 514L577 513M464 514L465 515L464 514z"/>
<path style="fill:#eca59d; stroke:none;" d="M464 515L465 516L464 515z"/>
<path style="fill:#7ea4f7; stroke:none;" d="M576 515L577 516L576 515M465 516L466 517L465 516M575.333 516.667L575.667 517.333L575.333 516.667M466 518L467 519L466 518M574 518L575 519L574 518M467 520L468 521L467 520M573 520L574 521L573 520z"/>
<path style="fill:#eca59d; stroke:none;" d="M573 521L574 522L573 521z"/>
<path style="fill:#7ea4f7; stroke:none;" d="M468 522L469 523L468 522M572 522L573 523L572 522M469 524L470 525L469 524M571 524L572 525L571 524M470 526L471 527L470 526M570 526L571 527L570 526M471 528L472 529L471 528M569 528L570 529L569 528M472 530L473 531L472 530M568 530L569 531L568 530M473 532L474 533L473 532M567 532L568 533L567 532M474 534L475 535L474 534M566 534L567 535L566 534M565 536L566 537L565 536M476 537L477 538L476 537z"/>
<path style="fill:#eca59d; stroke:none;" d="M476 538L477 539L476 538z"/>
<path style="fill:#7ea4f7; stroke:none;" d="M564 538L565 539L564 538M477 539L478 540L477 539M563 540L564 541L563 540M478 541L479 542L478 541M479 543L480 544L479 543M561 543L562 544L561 543z"/>
<path style="fill:#eca59d; stroke:none;" d="M561 544L562 545L561 544z"/>
<path style="fill:#7ea4f7; stroke:none;" d="M480 545L481 546L480 545M560 545L561 546L560 545M481 547L482 548L481 547M559 547L560 548L559 547M482 549L483 550L482 549M558 549L559 550L558 549M483 551L484 552L483 551M557 551L558 552L557 551M484 553L485 554L484 553M556 553L557 554L556 553M485 555L486 556L485 555M555 555L556 556L555 555M486 557L487 558L486 557M554 557L555 558L554 557M553 559L554 560L553 559z"/>
<path style="fill:#eca59d; stroke:none;" d="M488 561L489 562L488 561z"/>
<path style="fill:#7ea4f7; stroke:none;" d="M552 561L553 562L552 561z"/>
<path style="fill:#eca59d; stroke:none;" d="M489 563L490 564L489 563z"/>
<path style="fill:#7ea4f7; stroke:none;" d="M551 563L552 564L551 563M490 564L491 565L490 564M550 565L551 566L550 565M491 566L492 567L491 566M492 568L493 569L492 568z"/>
<path style="fill:#eca59d; stroke:none;" d="M135 569L136 570L135 569z"/>
<path style="fill:#7ea4f7; stroke:none;" d="M408.333 569.667L408.667 570.333L408.333 569.667M493 570L494 571L493 570M547 570L548 571L547 570M135 571L136 572L135 571M324 571L325 572L324 571M55 572L56 573L55 572M129 572L130 573L129 572z"/>
<path style="fill:#eca59d; stroke:none;" d="M130 572L131 573L130 572z"/>
<path style="fill:#7ea4f7; stroke:none;" d="M131 572L132 573L131 572M134 572L135 573L134 572z"/>
<path style="fill:#eca59d; stroke:none;" d="M327 572L328 573L327 572M495 572L496 573L495 572M545 572L546 573L545 572z"/>
<path style="fill:#7ea4f7; stroke:none;" d="M647 572L648 573L647 572M720 572L721 573L720 572M725.667 572.333L726.333 572.667L725.667 572.333z"/>
</svg>
